<?xml version="1.0" standalone="no"?>
<!DOCTYPE svg PUBLIC "-//W3C//DTD SVG 20010904//EN"
 "http://www.w3.org/TR/2001/REC-SVG-20010904/DTD/svg10.dtd">
<svg version="1.0" xmlns="http://www.w3.org/2000/svg"
 width="792.000000pt" height="792.000000pt" viewBox="0 0 792.000000 792.000000"
 preserveAspectRatio="xMidYMid meet">

<g transform="translate(0.000000,792.000000) scale(0.100000,-0.100000)"
fill="#000000" stroke="none">
<path d="M4152 7794 c-18 -14 -38 -24 -45 -21 -6 2 -32 -2 -57 -9 -25 -8 -68
-14 -97 -14 -28 0 -55 -5 -58 -11 -4 -6 -21 -9 -39 -8 -17 2 -41 -3 -53 -9
-12 -7 -28 -12 -35 -12 -7 0 -62 -25 -122 -54 -59 -30 -114 -52 -122 -49 -7 3
-25 -5 -40 -16 -15 -12 -32 -21 -38 -21 -7 0 -25 -13 -42 -29 -16 -15 -47 -38
-70 -49 -22 -11 -46 -28 -53 -36 -8 -9 -19 -16 -25 -16 -13 0 -34 -22 -105
-110 -24 -30 -72 -83 -107 -117 -35 -34 -64 -67 -64 -72 0 -5 -9 -13 -21 -16
-11 -4 -24 -18 -29 -31 -5 -13 -14 -24 -20 -24 -5 0 -10 -6 -10 -13 0 -7 -14
-26 -31 -43 -17 -16 -38 -42 -45 -59 -8 -16 -25 -47 -39 -67 -14 -22 -21 -40
-15 -43 15 -9 12 -35 -5 -35 -8 0 -12 -6 -10 -12 5 -13 -8 -120 -21 -185 -3
-19 -11 -30 -17 -26 -6 4 -8 -4 -5 -20 3 -16 0 -31 -8 -38 -10 -8 -10 -17 2
-45 21 -49 6 -90 -56 -151 -51 -51 -55 -61 -65 -156 -4 -31 -11 -55 -16 -52
-5 4 -9 -1 -9 -9 0 -9 -7 -16 -15 -16 -8 0 -15 -7 -15 -15 0 -26 -53 -118 -70
-122 -9 -2 -25 -21 -35 -41 -11 -20 -25 -41 -32 -45 -19 -12 -16 -25 14 -53
21 -19 26 -33 26 -70 0 -24 -5 -50 -11 -56 -7 -7 -12 -28 -12 -48 0 -20 -4
-40 -9 -45 -7 -9 -41 -101 -41 -112 0 -2 5 -1 10 2 16 10 21 -17 18 -86 -3
-58 -5 -61 -15 -39 l-12 25 0 -27 c-1 -19 4 -28 15 -28 12 0 15 -7 12 -25 -3
-14 -1 -28 3 -31 12 -7 11 -44 -1 -44 -5 0 -10 10 -11 23 0 21 -1 21 -9 2 -14
-32 -12 -65 5 -65 20 0 44 -40 47 -76 1 -16 8 -40 15 -54 7 -14 13 -37 13 -52
0 -33 19 -36 45 -8 17 19 17 21 2 38 -10 10 -17 29 -17 41 0 13 -8 35 -19 49
-37 54 -45 94 -33 170 7 39 12 92 12 119 0 65 9 91 31 98 10 4 19 13 19 21 0
8 5 14 11 14 7 0 8 -7 4 -17 -4 -10 -9 -27 -11 -38 -2 -11 -6 -31 -10 -45 -15
-51 33 8 55 69 12 32 28 64 36 71 8 7 15 21 15 31 0 24 11 24 38 -1 16 -15 20
-26 13 -38 -11 -22 5 -66 20 -56 8 4 9 3 5 -5 -10 -15 3 -53 15 -46 5 4 9 -3
9 -15 0 -12 -4 -18 -10 -15 -6 4 -9 -4 -7 -17 2 -20 -2 -23 -31 -23 -28 0 -36
-5 -50 -35 -14 -28 -22 -34 -43 -32 -33 4 -59 -26 -66 -76 -9 -64 44 -149 124
-203 62 -41 77 -59 48 -59 -8 0 -15 -9 -15 -20 0 -25 20 -27 21 -2 1 22 29
-67 29 -92 0 -11 -10 -35 -22 -53 -19 -27 -29 -33 -60 -33 -21 0 -38 5 -38 10
0 6 -18 10 -39 10 -22 0 -43 5 -46 10 -4 6 -15 8 -26 5 -13 -5 -19 -2 -19 10
0 8 -7 18 -15 21 -11 5 -15 22 -15 68 -1 33 -7 78 -14 99 -8 20 -10 40 -5 43
11 7 11 15 -1 34 -8 12 -12 12 -37 0 -36 -19 -59 -45 -84 -98 -11 -23 -24 -40
-29 -37 -6 4 -10 0 -10 -8 0 -7 -12 -25 -27 -39 -65 -58 -148 -172 -139 -187
15 -23 -60 -197 -125 -293 -22 -31 -39 -64 -39 -72 0 -8 -7 -21 -15 -30 -11
-11 -16 -43 -18 -125 -2 -95 0 -110 13 -106 8 2 21 1 29 -4 12 -8 12 -12 -2
-26 -10 -9 -17 -24 -17 -32 0 -14 2 -14 18 0 10 10 23 17 28 17 8 0 11 -46 4
-67 -1 -5 -1 -18 0 -30 0 -12 -8 -31 -19 -42 -12 -12 -21 -28 -21 -36 0 -36
-112 -115 -164 -115 -55 0 -129 -40 -191 -103 -58 -59 -62 -65 -43 -74 19 -8
19 -9 -1 -32 -12 -13 -21 -29 -21 -35 0 -6 5 -3 11 7 15 26 31 20 27 -10 -3
-27 -5 -28 -63 -28 l-60 0 -9 -42 c-7 -31 -15 -43 -33 -48 -13 -3 -23 -12 -23
-20 0 -27 -20 -26 -30 1 -8 21 -8 30 2 36 34 20 42 27 37 33 -11 10 -80 -25
-73 -37 5 -8 2 -9 -9 -5 -11 4 -21 -1 -28 -16 -7 -12 -19 -27 -27 -33 -29 -21
8 -114 45 -114 7 0 16 -14 20 -31 4 -21 10 -28 20 -25 9 4 27 -6 43 -24 15
-16 33 -30 39 -30 6 0 11 -8 11 -17 0 -14 2 -15 9 -4 11 18 23 -2 14 -25 -5
-13 -3 -16 10 -11 14 5 17 -1 18 -36 0 -23 3 -60 6 -82 5 -39 5 -51 0 -145 -1
-25 4 -54 11 -65 6 -11 12 -29 12 -41 0 -40 38 -111 84 -160 25 -26 46 -51 46
-56 0 -4 7 -8 15 -8 8 0 15 -5 15 -11 0 -5 13 -22 29 -37 15 -15 33 -36 39
-47 11 -19 11 -19 12 3 0 27 -4 29 99 -23 44 -22 80 -46 80 -53 1 -8 9 -12 19
-10 9 2 16 10 15 16 -2 7 1 12 5 12 17 0 32 -26 32 -56 0 -18 5 -36 10 -39 5
-3 10 4 10 16 0 16 5 20 20 16 15 -4 20 0 20 15 0 17 3 18 15 8 8 -7 15 -18
15 -24 0 -6 14 -22 31 -36 18 -14 39 -32 48 -40 40 -36 91 -70 106 -70 30 0
55 -20 55 -45 0 -13 5 -27 10 -30 6 -4 10 7 10 27 l1 33 19 -23 c11 -13 24
-21 29 -18 5 4 19 -10 31 -30 15 -23 28 -33 37 -30 8 3 17 6 19 6 3 0 2 5 -1
10 -3 6 3 10 13 10 13 0 23 -10 28 -27 l8 -28 6 35 7 35 11 -27 c6 -15 16 -58
23 -95 12 -74 24 -97 35 -69 4 10 0 42 -10 70 -18 58 -21 116 -7 116 6 0 13
-5 16 -10 4 -7 13 -6 26 1 23 12 49 -3 49 -27 0 -8 9 -40 21 -72 12 -31 21
-67 20 -78 -1 -23 30 -35 91 -36 17 -1 28 -8 31 -19 3 -11 10 -19 16 -19 12 0
5 94 -10 122 -5 9 -9 41 -9 72 0 49 2 55 23 58 17 2 23 11 25 36 2 24 10 35
28 42 13 5 24 14 24 19 0 11 56 -15 65 -30 9 -13 -39 -11 -53 3 -9 9 -12 7
-12 -11 0 -12 4 -20 9 -17 5 3 14 -1 21 -9 7 -8 23 -15 36 -15 14 0 28 -9 35
-22 12 -23 13 -22 21 10 8 29 12 32 48 32 29 0 40 -4 40 -15 0 -9 6 -12 15 -9
8 4 15 13 15 20 0 8 8 17 18 21 9 3 25 13 35 22 16 13 19 13 27 1 5 -8 7 -25
3 -38 -6 -24 13 -55 28 -46 12 7 11 48 -2 61 -6 6 -9 23 -7 39 2 21 8 29 23
29 14 0 19 -6 18 -22 -3 -27 23 -51 39 -35 8 8 8 15 0 25 -7 9 -8 23 -3 43 l9
29 7 -33 c14 -62 29 -49 22 21 -6 62 3 88 17 51 3 -8 10 -12 16 -9 7 4 7 12 0
25 -16 30 -12 44 26 94 20 26 33 53 31 61 -3 7 2 28 11 47 10 18 17 55 17 83
-1 37 4 53 17 63 10 7 16 18 12 23 -15 25 -31 123 -27 163 5 41 4 43 -24 49
-21 4 -32 15 -43 42 -8 19 -22 43 -32 52 -10 9 -18 21 -18 27 -1 14 -35 56
-46 56 -4 0 -3 -5 4 -12 14 -14 16 -48 3 -48 -5 0 -16 15 -25 33 -8 17 -16 25
-16 16 0 -20 39 -71 49 -65 4 3 16 -9 26 -27 10 -18 23 -35 28 -38 12 -9 -20
-69 -37 -69 -13 0 -76 70 -76 85 0 8 -53 79 -62 83 -5 2 -8 10 -8 18 0 8 -7
17 -15 20 -8 4 -12 10 -9 15 3 6 -2 21 -11 35 -20 31 -12 44 13 21 10 -10 22
-17 25 -17 17 0 2 22 -52 75 -33 32 -68 76 -78 99 -10 23 -28 49 -40 59 -50
40 -85 137 -49 137 7 0 47 -37 87 -83 41 -46 115 -129 164 -183 241 -268 267
-302 273 -366 3 -34 10 -51 21 -55 31 -11 166 -96 184 -116 15 -17 17 -41 17
-188 0 -132 4 -186 20 -252 10 -46 24 -124 29 -173 12 -111 45 -229 71 -257
11 -11 20 -24 20 -29 0 -4 4 -8 9 -8 8 0 49 66 122 201 14 25 40 70 59 98 l33
52 -32 33 c-37 38 -39 51 -8 67 34 18 176 169 198 211 11 21 25 38 32 38 6 0
22 10 33 23 23 23 104 52 126 44 7 -2 28 6 46 20 23 18 32 20 32 10 0 -20 25
-28 39 -14 6 6 11 20 11 32 0 15 6 21 23 21 12 0 25 -5 29 -10 11 -16 9 -96
-2 -96 -5 0 -10 5 -10 11 0 10 -106 8 -167 -3 -12 -2 -53 -38 -90 -80 -37 -42
-81 -86 -96 -99 -24 -18 -28 -27 -23 -52 6 -27 4 -29 -19 -25 -14 3 -28 1 -31
-4 -8 -13 15 -38 31 -32 19 8 24 -54 7 -89 -13 -27 -14 -28 -27 -10 -7 10 -17
15 -21 11 -12 -12 17 -38 42 -38 15 0 24 -6 24 -15 0 -8 7 -15 15 -15 22 0 44
-62 74 -215 27 -135 33 -162 44 -202 18 -68 26 -50 11 25 -8 37 -21 126 -29
197 -9 72 -22 145 -30 163 -13 28 -13 32 0 32 9 0 18 -8 22 -17 11 -32 25 -45
33 -32 11 18 30 1 30 -26 0 -18 4 -23 15 -19 24 10 18 -31 -7 -48 -45 -30 18
-81 75 -60 21 8 27 7 27 -4 0 -8 -6 -14 -12 -14 -10 0 -10 -2 0 -9 11 -7 11
-9 -1 -14 -17 -6 -13 -42 9 -67 7 -8 16 -28 20 -45 6 -26 5 -28 -8 -18 -8 7
-18 10 -21 6 -12 -11 -8 -23 8 -23 21 0 55 -40 55 -66 0 -30 17 -40 25 -14 9
29 35 25 35 -4 0 -29 18 -44 26 -22 4 11 13 14 31 10 23 -6 24 -5 18 30 -5 22
-3 36 3 36 11 0 52 -90 52 -114 0 -9 5 -16 10 -16 6 0 10 -8 10 -17 0 -9 3
-14 6 -11 11 12 -8 97 -27 117 -26 28 -26 65 1 56 18 -6 19 -3 14 24 -5 21 -1
39 12 58 l18 28 12 -65 c17 -87 17 -90 -3 -91 -12 -1 -9 -4 7 -8 15 -4 28 -3
32 3 5 7 8 7 8 -1 0 -17 15 -16 34 2 8 8 25 15 38 15 21 0 24 5 25 37 1 21 6
39 12 41 6 2 11 12 11 21 0 20 30 51 48 51 7 0 12 -11 12 -25 0 -15 6 -25 15
-25 17 0 36 -32 40 -68 1 -15 8 -28 14 -30 14 -5 15 -32 1 -32 -14 0 -13 -33
1 -47 6 -6 17 -9 23 -7 7 3 16 -16 23 -48 6 -29 16 -71 23 -93 6 -22 14 -51
17 -65 2 -15 14 -30 26 -35 14 -7 23 -21 25 -40 2 -18 13 -38 29 -49 l26 -19
-7 39 c-10 60 -12 109 -3 112 4 1 21 2 37 2 21 0 30 -5 30 -16 0 -11 6 -14 20
-9 13 4 20 2 20 -8 0 -17 44 -42 59 -33 7 4 11 -1 11 -13 0 -11 11 -33 24 -48
21 -24 25 -26 31 -11 4 9 2 25 -4 37 -22 40 -15 50 30 40 27 -6 53 -6 79 2 46
14 70 7 70 -21 0 -23 24 -53 34 -43 3 4 6 17 6 30 0 13 9 32 21 44 12 12 18
27 14 39 -3 10 -1 21 5 25 17 10 50 -5 50 -23 0 -13 3 -12 16 6 17 24 53 29
72 10 8 -8 15 -9 23 -1 17 17 53 3 78 -30 l23 -32 -5 35 c-4 28 1 42 24 70 20
24 29 45 29 70 0 41 -13 66 -29 56 -6 -4 -11 -1 -11 8 0 21 76 44 92 28 9 -9
9 -18 0 -37 -30 -66 -3 -59 43 10 33 49 45 59 66 57 4 -1 4 8 1 20 -4 18 -2
20 19 14 13 -4 29 -7 34 -6 6 0 24 2 40 4 44 5 85 17 85 25 0 4 -5 12 -10 17
-8 8 -6 15 5 24 9 7 15 9 13 4 -2 -5 1 -10 7 -12 5 -2 16 20 23 47 8 28 18 51
23 51 5 0 9 -4 9 -10 0 -5 9 -10 20 -10 26 0 25 14 -2 50 -25 34 -38 38 -38
13 -1 -11 -7 -4 -15 14 -8 18 -19 33 -25 33 -5 0 -10 6 -10 14 0 23 -26 38
-39 23 -6 -8 -8 -17 -4 -20 3 -4 1 -7 -5 -7 -7 0 -12 11 -12 24 0 17 7 26 26
30 29 8 28 27 -4 41 -16 7 -22 19 -22 41 0 23 -6 34 -25 42 -14 7 -28 19 -31
27 -8 19 -44 20 -44 1 0 -8 9 -18 20 -21 26 -8 26 -46 0 -70 -17 -16 -20 -16
-20 -2 0 21 -18 31 -34 18 -9 -8 -18 -5 -33 13 -36 41 -41 56 -30 87 12 32 -3
59 -34 59 -10 0 -21 9 -24 20 -3 11 -13 20 -20 20 -8 0 -19 9 -26 21 -9 17 -7
25 10 43 29 30 27 68 -5 95 -16 14 -24 30 -21 40 2 10 1 40 -3 66 -6 42 -5 51
13 65 19 16 20 17 1 45 -10 16 -14 26 -7 22 6 -4 14 -3 17 2 8 12 -20 34 -33
27 -5 -4 -11 4 -13 16 -2 19 -8 22 -36 20 -22 -2 -34 2 -38 12 -3 9 -10 14
-14 11 -10 -6 -20 19 -12 31 12 17 113 4 120 -15 3 -9 16 -27 29 -41 13 -14
23 -30 23 -35 0 -6 23 -28 50 -49 28 -21 49 -44 48 -50 -2 -7 12 -26 30 -44
17 -17 32 -36 32 -42 0 -5 4 -10 9 -10 15 0 23 18 11 25 -5 3 -22 31 -36 61
-14 30 -29 54 -34 54 -13 0 -80 63 -80 75 0 6 -13 24 -30 40 -16 16 -30 34
-30 41 0 6 -7 17 -15 24 -8 7 -15 25 -15 41 0 15 -5 31 -11 35 -19 11 -49 94
-49 134 0 21 -4 42 -10 45 -6 4 -10 -8 -10 -28 0 -18 -3 -37 -7 -40 -12 -12
-43 26 -43 53 0 14 -5 31 -12 38 -7 7 -8 12 -2 12 5 0 2 4 -5 9 -20 13 -51 -5
-51 -29 0 -32 -18 -32 -25 0 -4 16 -11 30 -16 30 -6 0 -9 19 -7 41 2 33 -1 44
-17 53 -11 6 -22 12 -24 13 -2 2 1 8 6 15 6 7 13 25 17 41 5 23 3 27 -14 27
-16 0 -20 -7 -20 -30 0 -16 -4 -30 -9 -30 -19 0 -22 21 -7 51 15 30 11 74 -4
49 -5 -9 -10 -6 -15 9 -3 11 -12 21 -19 21 -19 0 -28 57 -13 80 18 30 24 25
44 -30 12 -34 23 -50 35 -50 20 0 24 -25 7 -36 -8 -4 -7 -9 2 -15 24 -15 39
-10 49 15 15 40 -18 88 -103 148 -21 16 -30 103 -13 130 9 15 7 26 -10 56 -14
24 -20 48 -17 68 4 25 -2 39 -26 66 -33 38 -39 63 -18 72 10 5 10 7 0 12 -7 3
-13 15 -13 27 0 16 3 18 12 9 20 -20 37 -14 31 11 -3 12 -10 28 -16 34 -5 7
-9 35 -9 63 0 28 -6 54 -13 60 -10 8 -14 -4 -20 -60 -4 -38 -11 -73 -17 -76
-5 -3 -5 -10 0 -17 16 -21 20 -44 11 -58 -7 -11 -13 -9 -28 11 -11 14 -22 22
-25 19 -6 -6 62 -112 76 -117 4 -2 8 -12 8 -23 0 -17 -3 -18 -21 -8 -12 6 -24
20 -26 30 -3 10 -13 19 -22 19 -18 0 -37 45 -53 125 -5 28 -16 69 -23 92 -12
36 -12 42 2 47 11 5 13 14 8 38 -4 18 -12 39 -17 45 -6 7 -7 20 -4 29 3 9 -1
53 -11 97 -26 128 0 236 33 137 6 -19 16 -36 23 -38 21 -7 11 61 -15 106 -24
41 -26 52 -21 116 7 91 26 166 42 166 16 0 45 87 45 136 0 38 11 79 38 147 19
47 21 111 4 162 -14 42 -15 39 23 220 9 44 22 123 30 175 7 52 21 118 30 145
36 110 65 239 65 288 0 22 7 70 16 106 15 60 16 73 1 156 -9 49 -18 119 -21
155 -3 36 -16 99 -29 140 -13 41 -25 101 -26 133 0 32 -5 66 -10 75 -4 9 -14
40 -20 68 -7 28 -28 77 -48 110 -20 32 -44 83 -54 113 -10 29 -35 71 -54 92
-19 22 -35 48 -35 60 0 28 -23 70 -55 97 -14 13 -33 38 -40 55 -14 33 -73 94
-136 141 -24 18 -55 29 -90 33 -58 6 -89 25 -89 55 0 29 -36 58 -72 58 -23 0
-42 10 -62 30 -29 30 -34 31 -143 35 -18 1 -36 4 -40 8 -3 4 -16 7 -27 7 -12
0 -27 9 -34 21 -11 17 -19 20 -49 14 -26 -5 -40 -2 -55 12 -19 17 -53 22 -150
23 -20 0 -49 7 -65 15 -15 8 -39 15 -53 15 -14 1 -36 7 -50 15 -37 21 -71 18
-108 -11z m-604 -621 c2 -14 10 -23 21 -23 14 0 17 6 13 25 -3 20 0 25 17 25
27 0 27 -24 1 -50 -11 -11 -17 -26 -14 -35 4 -8 1 -22 -6 -30 -10 -12 -9 -15
5 -15 9 0 19 -9 22 -20 3 -11 16 -23 29 -26 13 -3 24 -10 24 -15 0 -4 17 -2
38 5 28 10 36 18 34 34 -4 26 55 60 64 37 13 -32 -1 -60 -31 -66 -16 -4 -24
-7 -17 -8 6 0 12 -10 12 -20 0 -17 18 -31 41 -31 5 0 9 8 9 18 0 10 5 23 12
30 9 9 9 12 0 12 -7 0 -12 7 -12 15 0 8 5 15 10 15 6 0 20 16 31 35 26 43 59
46 93 10 14 -15 30 -23 39 -19 17 6 37 -23 30 -43 -3 -8 5 -13 20 -13 21 0 27
-6 32 -32 8 -37 20 -48 51 -48 12 0 26 -11 35 -27 22 -44 56 -72 78 -66 12 3
29 2 38 -2 17 -6 17 -7 -1 -20 -10 -8 -16 -19 -14 -26 5 -16 106 -40 137 -32
14 3 26 0 31 -8 11 -18 46 12 54 47 9 33 42 32 50 -1 6 -24 8 -25 24 -9 9 10
22 27 27 38 6 12 21 21 33 21 13 0 27 7 31 14 13 20 36 8 36 -20 0 -25 -3 -24
85 -28 23 -2 24 -3 8 -15 -23 -17 -23 -28 3 -44 15 -9 18 -17 10 -25 -5 -7 -6
-19 -2 -26 5 -8 6 -31 4 -51 -4 -31 -2 -40 15 -49 13 -7 19 -17 16 -26 -4 -8
-3 -23 1 -32 9 -24 12 -243 4 -249 -10 -6 -6 -24 14 -61 9 -18 17 -43 17 -57
0 -18 6 -25 23 -28 26 -4 35 -40 17 -74 -7 -12 -10 -32 -7 -44 7 -27 -19 -38
-99 -41 -33 -2 -76 -11 -96 -21 -21 -10 -42 -18 -47 -18 -5 0 -31 -20 -58 -45
-26 -25 -51 -45 -55 -45 -5 0 -8 -7 -8 -15 0 -16 -43 -31 -59 -20 -17 10 -34
-5 -22 -19 8 -9 6 -19 -8 -35 -19 -22 -38 -97 -27 -108 3 -3 -3 -22 -14 -43
-13 -26 -17 -48 -13 -74 5 -34 1 -51 -28 -108 -5 -9 -5 -19 -1 -22 5 -3 7 -33
6 -68 -1 -35 7 -141 18 -236 21 -185 19 -229 -12 -257 -11 -10 -20 -23 -20
-30 0 -17 -36 -31 -115 -45 -38 -7 -73 -17 -76 -23 -11 -16 -26 0 -33 33 -3
17 -11 30 -18 29 -7 -1 -26 3 -43 10 -32 13 -121 6 -131 -10 -3 -6 -14 -7 -25
-4 -15 5 -19 1 -19 -14 0 -32 -18 -25 -34 14 -19 45 -40 47 -31 3 10 -48 55
-99 101 -116 37 -14 44 -13 74 1 40 21 40 21 40 2 0 -9 9 -15 23 -15 23 0 46
-21 66 -59 17 -30 13 -52 -9 -58 -11 -3 -20 -9 -20 -14 0 -5 -7 -9 -15 -9 -8
0 -15 9 -15 19 0 12 -11 23 -31 30 -18 6 -37 17 -43 25 -16 20 -73 9 -79 -15
-3 -12 -11 -17 -20 -13 -8 3 -21 -2 -30 -10 -19 -20 -27 -20 -27 -2 0 21 -32
30 -42 12 -10 -18 -69 -36 -116 -36 -34 0 -92 -24 -104 -44 -4 -6 -13 -11 -20
-12 -36 -2 -79 -18 -93 -34 -9 -10 -23 -16 -31 -13 -8 3 -14 -1 -14 -10 0 -8
-16 -25 -35 -38 -19 -13 -35 -31 -35 -40 0 -17 -24 -32 -34 -22 -3 4 -6 18 -6
32 0 26 -35 71 -56 71 -7 0 -17 7 -22 16 -6 11 -11 13 -16 5 -11 -18 -34 -13
-41 9 -11 33 -27 11 -23 -31 3 -30 0 -38 -11 -36 -9 1 -17 -7 -19 -18 -3 -11
-9 -23 -15 -27 -6 -3 -13 -25 -16 -49 -7 -52 -33 -73 -56 -44 -11 16 -16 17
-23 7 -7 -10 -14 -3 -27 25 -10 21 -26 56 -36 77 -11 22 -19 45 -19 51 0 6
-14 19 -32 29 -29 18 -30 20 -13 32 12 9 14 14 6 14 -8 0 -11 6 -7 16 7 19
-10 44 -31 44 -8 0 -23 -10 -34 -22 l-18 -23 -1 23 c0 32 -20 17 -21 -16 -2
-49 -20 34 -26 118 -5 68 -6 95 -3 148 1 9 -3 37 -8 61 -10 46 -7 71 9 71 5 0
9 -7 9 -16 0 -13 7 -10 28 12 16 16 27 31 26 33 -2 2 1 10 7 17 12 15 5 44
-11 44 -5 0 -10 -14 -10 -31 0 -36 -27 -70 -40 -50 -5 9 -16 11 -30 6 l-23 -7
20 22 c12 12 23 35 27 51 5 25 9 29 26 24 17 -5 20 -2 20 25 0 18 4 29 10 25
16 -10 24 24 10 41 -8 8 -16 11 -19 7 -12 -16 -50 -32 -56 -24 -6 11 4 41 20
57 6 7 12 36 14 65 1 30 6 56 12 57 5 2 9 11 9 21 0 9 9 34 20 56 11 22 20 51
20 66 0 41 10 59 32 59 11 0 16 4 13 11 -4 6 -13 8 -21 5 -8 -3 -14 -1 -14 4
0 5 12 10 28 12 23 3 27 8 30 41 2 20 9 37 15 37 15 0 41 56 32 69 -3 6 3 28
15 50 11 22 20 57 21 78 0 21 9 52 20 68 10 17 28 50 39 75 24 53 57 80 71 58
5 -7 7 -20 4 -28 -17 -59 -17 -70 -1 -70 9 0 22 -11 28 -25 11 -25 41 -34 53
-15 11 17 25 0 25 -29 0 -55 13 -91 43 -121 17 -17 36 -30 43 -30 7 0 17 -6
21 -14 4 -7 18 -18 29 -24 12 -6 54 -38 94 -72 39 -33 77 -60 84 -60 7 0 23
-11 35 -24 13 -14 30 -22 38 -19 8 3 24 -3 36 -14 12 -11 36 -28 52 -38 17
-10 34 -24 38 -32 10 -17 55 -16 87 2 14 8 39 14 56 15 24 0 39 9 63 38 17 20
38 44 46 53 8 9 15 28 15 42 0 15 5 27 10 27 6 0 10 -9 10 -20 0 -11 7 -20 15
-20 10 0 15 11 15 35 0 22 5 35 13 35 33 0 63 55 76 134 11 65 18 85 41 106
25 23 60 113 60 153 0 18 -24 40 -33 30 -4 -3 -7 5 -7 19 0 14 -7 28 -15 32
-8 3 -15 12 -15 19 0 8 -9 22 -19 31 -16 15 -22 15 -40 5 -17 -12 -23 -10 -44
9 -13 12 -34 22 -48 22 -14 0 -49 9 -79 19 -30 11 -89 22 -130 25 -107 8 -151
17 -156 30 -3 7 -23 13 -46 15 -23 1 -45 4 -50 7 -4 3 -8 -1 -8 -10 0 -17 -52
-36 -98 -34 -42 1 -63 33 -35 54 10 7 25 14 34 14 14 0 16 9 14 51 -2 44 -7
54 -29 68 -15 9 -26 25 -26 38 0 12 -5 25 -11 28 -7 5 -5 13 7 26 15 17 15 19
0 35 -19 19 -13 52 14 71 9 7 25 33 35 58 12 33 21 45 32 41 30 -12 32 6 6 41
l-27 35 18 47 c10 25 21 60 25 76 6 27 11 30 46 32 22 1 51 5 65 9 l25 6 -22
9 c-15 5 -23 17 -23 33 0 21 -6 25 -50 31 -55 8 -59 11 -33 30 16 12 13 14
-22 21 -22 5 -44 9 -50 9 -5 0 -16 14 -24 30 l-13 30 -9 -30 c-6 -21 -4 -34 6
-45 19 -21 19 -40 0 -40 -8 0 -15 5 -15 10 0 6 -6 10 -12 10 -14 0 -17 51 -5
85 11 31 95 75 137 72 28 -1 36 -7 38 -24z m302 17 c0 -5 -4 -10 -10 -10 -5 0
-10 5 -10 10 0 6 5 10 10 10 6 0 10 -4 10 -10z m-56 -51 c-8 -14 -24 -10 -24
6 0 9 6 12 15 9 8 -4 12 -10 9 -15z m-450 -46 c-5 -5 -12 -12 -16 -18 -4 -6
-8 -2 -8 8 0 9 7 17 17 17 9 0 12 -3 7 -7z m-14 -63 c0 -5 -5 -10 -11 -10 -8
0 -7 -6 2 -17 12 -17 12 -17 -5 -1 -10 9 -15 21 -12 27 9 14 26 14 26 1z m135
-20 c-3 -5 -10 -10 -16 -10 -5 0 -9 5 -9 10 0 6 7 10 16 10 8 0 12 -4 9 -10z
m-50 -45 c0 -11 -8 -21 -17 -23 -14 -3 -18 3 -18 23 0 20 4 26 18 23 9 -2 17
-12 17 -23z m60 5 c-3 -5 -13 -10 -21 -10 -8 0 -14 5 -14 10 0 6 9 10 21 10
11 0 17 -4 14 -10z m-145 -30 c0 -5 -5 -10 -11 -10 -5 0 -7 5 -4 10 3 6 8 10
11 10 2 0 4 -4 4 -10z m1207 -22 c-3 -7 -5 -2 -5 12 0 14 2 19 5 13 2 -7 2
-19 0 -25z m-1230 -30 c-3 -8 -6 -5 -6 6 -1 11 2 17 5 13 3 -3 4 -12 1 -19z
m69 12 c18 -7 24 -14 17 -21 -11 -11 -63 8 -63 23 0 11 13 10 46 -2z m964 -89
c0 -5 -7 -11 -15 -15 -9 -3 -15 0 -15 9 0 8 7 15 15 15 8 0 15 -4 15 -9z
m-1030 -55 c0 -15 -18 -31 -26 -23 -7 7 7 37 17 37 5 0 9 -6 9 -14z m24 -242
c3 -8 2 -12 -4 -9 -6 3 -10 10 -10 16 0 14 7 11 14 -7z m-687 -266 c-3 -8 -6
-5 -6 6 -1 11 2 17 5 13 3 -3 4 -12 1 -19z m703 -87 c0 -6 -4 -13 -10 -16 -5
-3 -10 1 -10 9 0 9 5 16 10 16 6 0 10 -4 10 -9z m266 -137 c11 4 18 0 21 -14
6 -22 19 -26 25 -8 5 14 68 -43 68 -61 0 -7 -11 -11 -27 -9 -22 2 -28 -1 -27
-14 2 -15 -7 -18 -45 -18 -25 0 -53 4 -61 10 -9 5 -19 5 -27 -1 -19 -17 -34 0
-31 33 2 22 -3 34 -17 42 -11 6 -26 19 -34 30 -13 17 -15 17 -23 2 -5 -9 -13
-14 -19 -11 -5 4 -9 1 -9 -4 0 -6 -8 -11 -17 -10 -15 0 -14 3 5 16 12 8 22 21
22 29 0 8 20 15 58 19 31 4 61 8 67 9 5 1 19 -9 32 -22 14 -15 29 -22 39 -18z
m-326 -8 c0 -3 -4 -8 -10 -11 -5 -3 -10 -1 -10 4 0 6 5 11 10 11 6 0 10 -2 10
-4z m60 -92 c0 -13 -4 -24 -10 -24 -5 0 -10 9 -10 19 0 11 -3 28 -7 38 -6 16
-5 16 10 4 9 -7 17 -24 17 -37z m-52 4 c-6 -18 -28 -21 -28 -4 0 9 7 16 16 16
9 0 14 -5 12 -12z m281 -256 c1 -24 7 -35 24 -42 12 -5 16 -9 10 -9 -7 -1 -13
-10 -13 -21 0 -24 -35 -27 -62 -6 -21 16 -23 36 -4 36 18 0 28 37 11 44 -23 9
-24 55 -1 72 20 14 21 13 27 -13 4 -16 7 -43 8 -61z m246 -18 c-16 -13 -34
-24 -38 -24 -9 0 -2 33 16 68 l11 23 20 -21 21 -21 -30 -25z m-945 -44 c0 -5
-7 -7 -15 -4 -8 4 -15 8 -15 10 0 2 7 4 15 4 8 0 15 -4 15 -10z m1930 -112 c0
-16 -3 -19 -11 -11 -6 6 -8 16 -5 22 11 17 16 13 16 -11z m-230 -3 c-7 -9 -15
-13 -17 -11 -7 7 7 26 19 26 6 0 6 -6 -2 -15z m154 -36 c10 -54 8 -61 -16 -53
-40 12 -49 42 -22 68 23 23 31 20 38 -15z m-2019 -209 c-1 -50 -5 -93 -8 -96
-3 -3 -3 -12 0 -20 3 -8 0 -21 -7 -29 -6 -8 -9 -19 -6 -24 4 -5 3 -12 -2 -15
-14 -8 -67 64 -73 101 -5 27 -2 36 10 41 21 7 31 22 31 47 0 15 43 79 56 84 1
1 1 -40 -1 -89z m50 -160 c3 -5 1 -10 -4 -10 -6 0 -11 5 -11 10 0 6 2 10 4 10
3 0 8 -4 11 -10z m1954 -24 c7 -8 16 -27 20 -43 7 -26 13 -29 70 -36 34 -4 85
-4 112 1 55 10 76 1 81 -36 2 -16 -4 -26 -22 -35 -21 -11 -24 -19 -22 -50 2
-20 0 -37 -5 -37 -16 0 -31 15 -34 34 -4 20 -73 65 -84 54 -14 -14 -17 -85 -4
-93 7 -5 14 -4 17 3 4 13 32 17 32 4 0 -4 -5 -13 -12 -20 -8 -8 -8 -15 1 -25
17 -21 3 -49 -20 -42 -22 7 -31 -8 -33 -58 -1 -21 -7 -33 -18 -35 -12 -2 -15
2 -12 15 4 14 -4 23 -30 36 -29 13 -36 22 -36 45 0 15 -4 32 -10 38 -5 5 -12
51 -14 101 -3 51 -10 101 -15 112 -12 22 -14 64 -4 74 11 11 30 8 42 -7z
m-2399 -14 c0 -13 -12 -22 -22 -16 -10 6 -1 24 13 24 5 0 9 -4 9 -8z m2530
-36 c0 -11 -19 -15 -25 -6 -3 5 1 10 9 10 9 0 16 -2 16 -4z m-2130 -200 c0 -3
-4 -8 -10 -11 -5 -3 -10 -1 -10 4 0 6 5 11 10 11 6 0 10 -2 10 -4z m2225 -26
c-3 -5 -14 -10 -23 -10 -15 0 -15 2 -2 10 20 13 33 13 25 0z m-2225 -127 c0
-47 -2 -84 -4 -82 -7 7 -15 157 -9 163 12 12 13 5 13 -81z m1240 -113 c0 -5
-4 -10 -10 -10 -5 0 -10 5 -10 10 0 6 5 10 10 10 6 0 10 -4 10 -10z m221 -18
c7 -17 5 -24 -7 -29 -18 -7 -34 12 -34 40 0 26 31 18 41 -11z m-266 -12 c-6
-9 55 -30 87 -30 9 0 21 -13 26 -29 6 -16 21 -35 34 -42 13 -6 26 -17 30 -22
4 -7 20 0 42 16 19 15 42 27 50 27 9 0 16 7 16 15 0 8 -5 15 -11 15 -5 0 -7 5
-4 10 12 19 21 10 23 -22 2 -17 7 -37 13 -44 7 -8 4 -14 -8 -19 -39 -14 -115
-24 -131 -16 -9 4 -38 18 -63 31 -38 19 -55 22 -101 17 -30 -4 -71 -14 -91
-22 -26 -11 -43 -12 -62 -5 -26 10 -34 30 -12 30 7 0 32 16 55 36 30 25 48 34
62 29 11 -4 21 -2 21 4 1 6 3 16 4 21 1 6 3 13 4 16 0 3 6 2 11 -1 6 -4 8 -10
5 -15z m-1105 -9 c0 -6 -4 -13 -10 -16 -5 -3 -10 1 -10 9 0 9 5 16 10 16 6 0
10 -4 10 -9z m-83 -38 c-3 -10 -5 -4 -5 12 0 17 2 24 5 18 2 -7 2 -21 0 -30z
m1433 -3 c0 -5 -2 -10 -4 -10 -3 0 -8 5 -11 10 -3 6 -1 10 4 10 6 0 11 -4 11
-10z m-940 -60 c0 -5 -4 -10 -10 -10 -5 0 -10 5 -10 10 0 6 5 10 10 10 6 0 10
-4 10 -10z m496 -47 c-10 -10 -19 5 -10 18 6 11 8 11 12 0 2 -7 1 -15 -2 -18z
m-1723 -89 c8 -8 -3 -34 -14 -34 -5 0 -9 9 -9 20 0 19 11 26 23 14z m1322 -44
c-3 -5 -10 -10 -16 -10 -5 0 -9 5 -9 10 0 6 7 10 16 10 8 0 12 -4 9 -10z m51
-17 c-10 -10 -19 5 -10 18 6 11 8 11 12 0 2 -7 1 -15 -2 -18z m-259 -9 c-3 -3
-12 -4 -19 -1 -8 3 -5 6 6 6 11 1 17 -2 13 -5z m-1099 -37 c22 -1 20 -10 -11
-44 -25 -28 -47 -30 -47 -5 0 10 -5 23 -11 29 -8 8 -8 17 1 33 11 20 13 21 30
5 10 -9 27 -17 38 -18z m1232 13 c0 -11 -4 -20 -10 -20 -5 0 -10 9 -10 20 0
11 5 20 10 20 6 0 10 -9 10 -20z m-100 -16 c0 -31 -23 -28 -28 4 -2 15 2 22
12 22 11 0 16 -9 16 -26z m865 -1 c11 -15 15 -15 30 -3 15 12 19 12 30 -3 7
-9 19 -17 27 -17 24 0 62 -35 54 -48 -9 -15 -43 -16 -51 -2 -4 7 -11 7 -18 2
-14 -11 -105 -7 -169 9 -59 14 -75 31 -60 63 10 23 15 24 78 20 48 -3 70 -9
79 -21z m-332 -33 c3 -11 16 -24 29 -29 12 -5 31 -18 42 -30 17 -19 17 -21 2
-27 -24 -9 -46 3 -46 26 0 27 -11 25 -33 -5 -14 -19 -15 -29 -7 -45 9 -17 7
-20 -14 -26 -14 -3 -24 -11 -23 -16 1 -6 -4 -13 -11 -15 -7 -3 -12 1 -11 8 1
8 -2 23 -6 33 -6 13 -3 23 8 31 17 12 22 36 11 47 -11 12 -64 -17 -64 -34 0
-23 -6 -23 -29 0 -22 21 -32 48 -25 67 5 11 19 13 65 10 47 -4 61 -2 65 10 9
22 41 18 47 -5z m1708 -53 c-13 -13 -15 1 -4 30 7 17 8 17 11 -1 2 -10 -1 -23
-7 -29z m-1995 -52 c2 -92 39 -144 102 -145 27 0 32 3 32 24 0 32 16 42 29 19
8 -15 24 -18 97 -18 87 0 89 0 109 -30 11 -17 29 -30 40 -30 11 0 19 -5 18
-11 -2 -13 61 -74 76 -74 21 0 22 -64 1 -105 -11 -21 -20 -53 -20 -70 0 -23
-7 -35 -28 -47 -32 -19 -133 -22 -126 -4 2 6 0 17 -5 25 -7 11 -13 10 -35 -4
-14 -9 -23 -21 -20 -26 3 -5 -3 -12 -13 -15 -10 -3 -25 -9 -34 -14 -18 -10
-59 -2 -59 10 0 5 8 11 18 13 9 3 -5 5 -33 4 -45 -2 -50 1 -63 26 -8 16 -21
27 -33 27 -42 0 -113 108 -111 169 1 26 -3 34 -19 38 -17 5 -20 11 -16 33 4
16 0 36 -9 49 -21 29 -11 40 34 34 36 -5 38 -4 48 33 9 37 6 77 -11 118 -6 14
-4 17 11 14 15 -2 19 -12 20 -43z m2059 -25 c-5 -8 -11 -8 -17 -2 -6 6 -7 16
-3 22 5 8 11 8 17 2 6 -6 7 -16 3 -22z m-1760 -30 c-3 -5 -10 -10 -16 -10 -5
0 -9 5 -9 10 0 6 7 10 16 10 8 0 12 -4 9 -10z m1815 -312 c0 -5 -4 -8 -10 -8
-5 0 -10 10 -10 23 0 18 2 19 10 7 5 -8 10 -18 10 -22z m75 -19 c9 -42 0 -47
-19 -10 -20 37 -20 41 -2 41 8 0 17 -14 21 -31z m-4009 -76 c-11 -11 -19 6
-11 24 8 17 8 17 12 0 3 -10 2 -21 -1 -24z m3954 -3 c6 -11 13 -37 16 -57 l4
-36 -20 26 c-11 14 -20 39 -20 56 0 36 5 39 20 11z m106 -37 c16 -21 18 -53 4
-53 -5 0 -10 7 -10 15 0 8 -7 15 -15 15 -8 0 -15 9 -15 20 0 25 18 26 36 3z
m-3868 -21 c2 -7 -6 -12 -17 -12 -21 0 -27 11 -14 24 9 9 26 2 31 -12z m3812
-136 c0 -3 -4 -8 -10 -11 -5 -3 -10 -1 -10 4 0 6 5 11 10 11 6 0 10 -2 10 -4z
m-3885 -156 c3 -5 2 -10 -4 -10 -5 0 -13 5 -16 10 -3 6 -2 10 4 10 5 0 13 -4
16 -10z m-85 -30 c0 -5 -4 -10 -10 -10 -5 0 -10 5 -10 10 0 6 5 10 10 10 6 0
10 -4 10 -10z m1476 -45 c-5 -14 17 -39 26 -29 3 3 15 -8 27 -25 l21 -30 -22
-3 c-16 -2 -34 9 -60 38 -42 45 -45 54 -23 54 8 0 15 5 15 11 0 5 5 7 11 4 6
-4 8 -13 5 -20z m2660 -32 c13 -16 24 -35 24 -43 -1 -15 -60 47 -60 62 0 15
13 8 36 -19z m-4160 -42 c-8 -13 -36 -15 -36 -3 0 4 5 13 12 20 14 14 34 0 24
-17z m4207 -79 c8 -17 10 -42 6 -67 -7 -43 -8 -41 -15 20 -3 22 -9 44 -15 50
-12 12 -12 38 1 30 6 -3 16 -18 23 -33z m67 -48 c0 -8 -7 -14 -15 -14 -17 0
-18 2 -9 24 7 18 24 12 24 -10z m-2640 -48 c0 -8 10 -16 21 -18 12 -2 31 -15
42 -30 19 -25 19 -27 1 -52 -29 -39 -51 -33 -64 17 -6 23 -15 52 -20 65 -13
30 -13 32 5 32 8 0 15 -6 15 -14z m-127 -79 c10 -41 2 -76 -13 -61 -5 5 -13
32 -16 58 -6 39 -4 48 7 44 7 -2 18 -21 22 -41z m2848 12 c11 -6 29 -19 40
-30 16 -16 16 -19 3 -19 -9 0 -18 -10 -22 -22 -5 -21 -6 -21 -13 -2 -7 18 -8
18 -15 -3 -9 -32 -23 -29 -30 6 -4 17 -13 32 -21 36 -14 5 -13 8 2 25 21 23
29 24 56 9z m-2784 -52 c16 -10 17 -59 1 -75 -32 -32 -59 10 -51 82 6 46 6 46
21 24 9 -13 22 -27 29 -31z m1430 13 c-3 -11 -1 -20 4 -20 5 0 9 6 9 13 1 8 4
7 9 -3 10 -16 3 -70 -8 -70 -4 0 -7 10 -7 23 1 16 -4 21 -16 19 -14 -2 -18 4
-18 28 0 21 5 30 16 30 11 0 15 -6 11 -20z m1453 -30 c0 -5 -4 -10 -9 -10 -6
0 -13 5 -16 10 -3 6 1 10 9 10 9 0 16 -4 16 -10z m-2930 -70 c16 0 11 -22 -7
-36 -31 -23 -39 -16 -37 34 3 62 2 61 20 30 8 -16 19 -28 24 -28z m210 20 c0
-10 -4 -22 -10 -25 -6 -4 -10 7 -10 25 0 18 4 29 10 25 6 -3 10 -15 10 -25z
m2550 11 c16 -32 13 -43 -10 -29 -20 13 -28 48 -10 48 5 0 14 -9 20 -19z
m-1470 -10 c0 -12 -20 -25 -27 -18 -7 7 6 27 18 27 5 0 9 -4 9 -9z m180 -12
c0 -5 -7 -9 -15 -9 -15 0 -20 12 -9 23 8 8 24 -1 24 -14z m1259 -37 c17 -33
41 -43 41 -17 0 20 15 19 36 -2 15 -16 15 -18 -10 -40 -19 -16 -22 -23 -12
-23 9 0 16 -9 16 -20 0 -31 -22 -24 -55 17 -42 51 -54 74 -55 101 0 32 20 23
39 -16z m-2410 -20 c-1 -20 -4 -28 -6 -18 -4 15 -7 16 -14 5 -6 -10 -9 -5 -9
17 0 17 3 34 6 37 14 13 24 -6 23 -41z m-109 18 c0 -5 -4 -10 -10 -10 -5 0
-10 5 -10 10 0 6 5 10 10 10 6 0 10 -4 10 -10z m-1353 -22 c-3 -8 -6 -5 -6 6
-1 11 2 17 5 13 3 -3 4 -12 1 -19z m4063 -37 c0 -28 -21 -61 -40 -61 -24 0
-24 3 -5 40 14 28 45 42 45 21z m-4062 -51 c0 -22 -3 -42 -7 -44 -11 -7 -28 8
-35 32 -6 18 -4 22 13 22 12 0 21 7 21 15 0 8 2 15 4 15 3 0 4 -18 4 -40z
m1458 -7 c-5 -12 -10 -13 -18 -5 -8 8 -8 15 3 28 15 18 25 4 15 -23z m-51 17
c-3 -5 -11 -10 -16 -10 -6 0 -7 5 -4 10 3 6 11 10 16 10 6 0 7 -4 4 -10z
m-677 -45 c-2 -10 -7 -12 -17 -5 -13 7 -13 11 -1 25 15 18 24 8 18 -20z m-828
15 c0 -5 -2 -10 -4 -10 -3 0 -8 5 -11 10 -3 6 -1 10 4 10 6 0 11 -4 11 -10z
m814 -42 c8 -13 7 -21 -2 -30 -10 -10 -14 -8 -18 10 -4 12 -10 22 -15 22 -5 0
-9 5 -9 11 0 16 31 7 44 -13z m2031 -103 c14 -55 28 -120 30 -145 2 -25 11
-105 20 -178 8 -73 13 -138 9 -143 -8 -14 -24 -1 -18 16 3 7 1 22 -5 33 -6 11
-11 35 -12 53 -1 19 -8 54 -16 78 -8 25 -16 78 -18 119 -7 122 -22 171 -38
130 -3 -8 -6 -6 -6 5 -1 9 3 17 7 17 9 0 7 66 -4 115 -6 27 -5 29 9 15 9 -8
28 -60 42 -115z m1304 76 c8 -24 8 -38 0 -47 -11 -14 -1 -39 32 -83 21 -26 25
-46 8 -35 -8 4 -9 -4 -4 -27 l6 -34 -20 25 c-11 14 -21 34 -21 45 0 11 -8 28
-19 36 -22 20 -36 96 -21 114 8 10 8 15 0 20 -8 5 -8 11 1 21 15 18 23 10 38
-35z m-99 20 c0 -5 -7 -11 -15 -15 -9 -3 -15 0 -15 9 0 8 7 15 15 15 8 0 15
-4 15 -9z m-1290 -26 c0 -14 -4 -25 -10 -25 -11 0 -14 33 -3 43 11 11 13 8 13
-18z m-1982 -72 c-2 -29 1 -43 9 -43 18 0 26 -18 19 -46 -8 -28 -32 -32 -39
-5 -3 14 -11 17 -29 14 -24 -4 -26 -1 -32 46 -8 59 -2 74 25 66 20 -7 27 9 9
20 -6 4 -8 11 -4 16 4 6 14 3 26 -8 15 -13 19 -28 16 -60z m3292 16 c0 -5 -7
-9 -15 -9 -9 0 -15 9 -15 21 0 18 2 19 15 9 8 -7 15 -16 15 -21z m-1320 -44
c0 -8 -2 -15 -4 -15 -2 0 -6 7 -10 15 -3 8 -1 15 4 15 6 0 10 -7 10 -15z
m-2610 -19 c0 -3 -4 -8 -10 -11 -5 -3 -10 -1 -10 4 0 6 5 11 10 11 6 0 10 -2
10 -4z m2617 -48 c-3 -8 -6 -5 -6 6 -1 11 2 17 5 13 3 -3 4 -12 1 -19z m-1527
-42 c0 -3 -4 -8 -10 -11 -5 -3 -10 -1 -10 4 0 6 5 11 10 11 6 0 10 -2 10 -4z
m30 -67 c0 -5 -4 -9 -10 -9 -5 0 -10 7 -10 16 0 8 5 12 10 9 6 -3 10 -10 10
-16z m1200 -83 c0 -8 -4 -18 -10 -21 -5 -3 -10 3 -10 14 0 12 5 21 10 21 6 0
10 -6 10 -14z m1786 -72 c26 -7 45 -44 37 -73 -7 -28 -23 -22 -50 19 -35 51
-31 66 13 54z m69 -94 c3 -5 1 -10 -4 -10 -6 0 -11 5 -11 10 0 6 2 10 4 10 3
0 8 -4 11 -10z m112 -56 c-3 -3 -12 -4 -19 -1 -8 3 -5 6 6 6 11 1 17 -2 13 -5z
m130 -70 c-2 -2 -12 -2 -21 2 -13 5 -14 9 -5 21 11 12 14 12 22 -2 5 -9 7 -19
4 -21z m-1640 -6 c-3 -8 -6 -5 -6 6 -1 11 2 17 5 13 3 -3 4 -12 1 -19z m1466
8 c4 -10 1 -13 -9 -9 -7 3 -14 9 -14 14 0 14 17 10 23 -5z m217 -56 c0 -5 -2
-10 -4 -10 -3 0 -8 5 -11 10 -3 6 -1 10 4 10 6 0 11 -4 11 -10z m-145 -121
c-8 -12 -35 -12 -35 0 0 11 22 20 33 14 4 -2 5 -9 2 -14z m-310 -239 c3 -5 1
-10 -4 -10 -6 0 -11 5 -11 10 0 6 2 10 4 10 3 0 8 -4 11 -10z"/>
<path d="M3525 7100 c-3 -5 -1 -10 4 -10 6 0 11 5 11 10 0 6 -2 10 -4 10 -3 0
-8 -4 -11 -10z"/>
<path d="M3875 7080 c3 -5 8 -10 11 -10 2 0 4 5 4 10 0 6 -5 10 -11 10 -5 0
-7 -4 -4 -10z"/>
<path d="M3703 6974 c-7 -18 17 -38 31 -24 11 11 1 40 -14 40 -6 0 -13 -7 -17
-16z"/>
<path d="M3522 6749 c1 -12 9 -24 16 -27 9 -3 13 3 10 19 -1 12 -9 24 -16 27
-9 3 -13 -3 -10 -19z"/>
<path d="M4777 6353 c-13 -12 -7 -43 8 -43 8 0 15 6 15 13 0 18 -15 38 -23 30z"/>
<path d="M3117 5844 c-10 -11 -9 -54 2 -54 14 0 22 30 13 46 -4 8 -11 11 -15
8z"/>
<path d="M2991 5724 c0 -11 3 -14 6 -6 3 7 2 16 -1 19 -3 4 -6 -2 -5 -13z"/>
<path d="M2894 4916 c-3 -14 -3 -30 1 -36 4 -6 1 -18 -6 -26 -6 -8 -9 -17 -5
-21 3 -3 6 -1 6 5 0 7 5 12 11 12 7 0 9 -12 5 -34 -6 -30 4 -46 29 -46 1 0 5
23 9 51 6 41 3 56 -14 85 -12 19 -23 34 -26 34 -2 0 -6 -11 -10 -24z"/>
<path d="M2770 4850 c0 -5 5 -10 10 -10 6 0 10 5 10 10 0 6 -4 10 -10 10 -5 0
-10 -4 -10 -10z"/>
<path d="M2803 4820 c-7 -11 -13 -34 -12 -52 0 -18 3 -26 6 -18 2 8 9 25 15
36 5 12 8 29 6 38 -3 14 -5 14 -15 -4z"/>
<path d="M2763 4775 c0 -22 2 -30 4 -17 2 12 2 30 0 40 -3 9 -5 -1 -4 -23z"/>
<path d="M3010 4750 c0 -5 5 -10 11 -10 5 0 7 5 4 10 -3 6 -8 10 -11 10 -2 0
-4 -4 -4 -10z"/>
<path d="M2870 4707 c0 -20 5 -34 13 -35 6 0 21 -2 31 -4 10 -2 21 2 23 9 2 6
-6 13 -19 15 -28 4 -36 34 -11 41 12 3 8 5 -9 6 -25 1 -28 -2 -28 -32z"/>
<path d="M3165 4681 c-6 -11 9 -23 19 -14 9 9 7 23 -3 23 -6 0 -12 -4 -16 -9z"/>
<path d="M2760 4659 c0 -11 5 -17 10 -14 6 3 10 13 10 21 0 8 -4 14 -10 14 -5
0 -10 -9 -10 -21z"/>
<path d="M3010 4634 c0 -8 5 -12 10 -9 6 4 8 11 5 16 -9 14 -15 11 -15 -7z"/>
<path d="M2790 4615 c0 -8 4 -15 9 -15 5 0 11 7 15 15 3 9 0 15 -9 15 -8 0
-15 -7 -15 -15z"/>
<path d="M2930 4590 c0 -5 5 -10 11 -10 5 0 7 5 4 10 -3 6 -8 10 -11 10 -2 0
-4 -4 -4 -10z"/>
<path d="M3662 5960 c0 -14 2 -19 5 -12 2 6 2 18 0 25 -3 6 -5 1 -5 -13z"/>
<path d="M4726 4895 c-3 -8 -1 -15 4 -15 6 0 10 7 10 15 0 8 -2 15 -4 15 -2 0
-6 -7 -10 -15z"/>
<path d="M4748 4755 c-3 -14 -1 -25 3 -25 5 0 9 11 9 25 0 14 -2 25 -4 25 -2
0 -6 -11 -8 -25z"/>
<path d="M3360 3886 c0 -9 30 -14 35 -6 4 6 -3 10 -14 10 -12 0 -21 -2 -21 -4z"/>
<path d="M3225 2840 c-3 -5 -1 -10 4 -10 6 0 11 5 11 10 0 6 -2 10 -4 10 -3 0
-8 -4 -11 -10z"/>
<path d="M2467 5423 c-4 -3 -7 -11 -7 -17 0 -6 5 -5 12 2 6 6 9 14 7 17 -3 3
-9 2 -12 -2z"/>
<path d="M2555 5020 c-19 -7 -19 -8 -2 -15 19 -8 31 -2 26 13 -2 5 -13 6 -24
2z"/>
<path d="M2431 4914 c0 -11 3 -14 6 -6 3 7 2 16 -1 19 -3 4 -6 -2 -5 -13z"/>
<path d="M2446 4877 c3 -10 9 -15 12 -12 3 3 0 11 -7 18 -10 9 -11 8 -5 -6z"/>
<path d="M5491 3974 c0 -11 3 -14 6 -6 3 7 2 16 -1 19 -3 4 -6 -2 -5 -13z"/>
<path d="M5530 3956 c0 -8 5 -18 10 -21 6 -3 10 1 10 9 0 8 -4 18 -10 21 -5 3
-10 -1 -10 -9z"/>
<path d="M1355 3490 c-3 -5 -1 -10 4 -10 6 0 11 5 11 10 0 6 -2 10 -4 10 -3 0
-8 -4 -11 -10z"/>
<path d="M5830 3245 c0 -8 5 -15 10 -15 6 0 10 7 10 15 0 8 -4 15 -10 15 -5 0
-10 -7 -10 -15z"/>
<path d="M5865 3210 c3 -5 10 -10 16 -10 5 0 9 5 9 10 0 6 -7 10 -16 10 -8 0
-12 -4 -9 -10z"/>
<path d="M5900 3175 c0 -8 5 -15 10 -15 6 0 10 7 10 15 0 8 -4 15 -10 15 -5 0
-10 -7 -10 -15z"/>
<path d="M5862 3108 c-13 -13 -4 -38 14 -38 15 0 19 35 6 44 -5 3 -14 0 -20
-6z"/>
<path d="M5920 3090 c0 -5 5 -10 11 -10 5 0 7 5 4 10 -3 6 -8 10 -11 10 -2 0
-4 -4 -4 -10z"/>
<path d="M5810 3066 c0 -8 5 -18 10 -21 6 -3 10 3 10 14 0 12 -4 21 -10 21 -5
0 -10 -6 -10 -14z"/>
<path d="M1310 2820 c0 -5 5 -10 11 -10 5 0 7 5 4 10 -3 6 -8 10 -11 10 -2 0
-4 -4 -4 -10z"/>
<path d="M1400 2503 c0 -13 5 -23 10 -23 13 0 13 11 0 30 -8 12 -10 11 -10 -7z"/>
<path d="M1421 2455 c0 -5 4 -30 10 -55 5 -25 12 -60 14 -79 6 -39 27 -81 32
-65 2 6 -1 31 -7 55 -6 24 -15 60 -19 79 -7 35 -31 84 -30 65z"/>
<path d="M6141 2384 c0 -11 3 -14 6 -6 3 7 2 16 -1 19 -3 4 -6 -2 -5 -13z"/>
<path d="M6300 2391 c0 -6 5 -13 10 -16 6 -3 10 1 10 9 0 9 -4 16 -10 16 -5 0
-10 -4 -10 -9z"/>
<path d="M4186 2172 c-3 -5 1 -15 9 -22 16 -14 20 -3 6 19 -5 8 -11 9 -15 3z"/>
<path d="M6405 2050 c4 -6 11 -8 16 -5 14 9 11 15 -7 15 -8 0 -12 -5 -9 -10z"/>
<path d="M4167 2044 c-11 -11 -8 -44 3 -44 15 0 24 30 13 41 -5 5 -12 6 -16 3z"/>
<path d="M4104 1995 c-6 -15 30 -274 46 -335 9 -33 9 -33 4 10 -2 25 -9 111
-16 193 -10 135 -19 171 -34 132z"/>
<path d="M4230 1997 c0 -17 38 -53 46 -44 7 7 -25 57 -37 57 -5 0 -9 -6 -9
-13z"/>
<path d="M6398 1983 c7 -3 16 -2 19 1 4 3 -2 6 -13 5 -11 0 -14 -3 -6 -6z"/>
<path d="M3452 1870 c0 -14 2 -19 5 -12 2 6 2 18 0 25 -3 6 -5 1 -5 -13z"/>
<path d="M4370 1875 c0 -8 5 -15 10 -15 6 0 10 7 10 15 0 8 -4 15 -10 15 -5 0
-10 -7 -10 -15z"/>
<path d="M3061 1854 c0 -11 3 -14 6 -6 3 7 2 16 -1 19 -3 4 -6 -2 -5 -13z"/>
<path d="M2575 1727 c5 -77 17 -119 28 -100 5 9 -18 145 -29 168 -2 6 -2 -25
1 -68z"/>
<path d="M6567 1753 c-9 -9 -8 -25 2 -42 7 -10 14 -8 35 10 24 21 25 24 9 31
-24 9 -38 9 -46 1z"/>
<path d="M5030 1675 c0 -31 11 -65 21 -65 5 0 6 15 2 33 -7 38 -23 60 -23 32z"/>
<path d="M3971 1574 c0 -11 3 -14 6 -6 3 7 2 16 -1 19 -3 4 -6 -2 -5 -13z"/>
<path d="M4172 1570 c0 -14 2 -19 5 -12 2 6 2 18 0 25 -3 6 -5 1 -5 -13z"/>
<path d="M4951 1574 c0 -11 3 -14 6 -6 3 7 2 16 -1 19 -3 4 -6 -2 -5 -13z"/>
<path d="M5057 1523 c-4 -3 -7 -13 -7 -21 0 -12 3 -12 15 -2 8 7 15 16 15 21
0 11 -14 12 -23 2z"/>
<path d="M4985 1471 c6 -37 11 -48 21 -39 3 3 -2 21 -11 39 l-15 34 5 -34z"/>
<path d="M5208 1265 c-8 -9 3 -45 13 -45 5 0 9 6 9 13 0 17 -15 39 -22 32z"/>
<path d="M1142 1045 c0 -16 2 -22 5 -12 2 9 2 23 0 30 -3 6 -5 -1 -5 -18z"/>
<path d="M1046 898 c-12 -19 -13 -37 -5 -103 14 -117 24 -144 73 -210 47 -62
88 -91 79 -55 -3 11 -16 31 -29 45 -37 40 -46 62 -34 84 5 11 10 39 9 63 0 27
-3 36 -7 26 -5 -13 -14 3 -31 54 l-23 72 21 14 c29 20 26 32 -9 32 -20 0 -34
-7 -44 -22z m64 -208 c0 -16 -4 -30 -10 -30 -5 0 -10 14 -10 30 0 17 5 30 10
30 6 0 10 -13 10 -30z"/>
<path d="M3594 805 c0 -66 1 -92 3 -57 2 34 2 88 0 120 -2 31 -3 3 -3 -63z"/>
<path d="M5794 570 c0 -80 2 -112 3 -72 2 39 2 105 0 145 -1 39 -3 7 -3 -73z"/>
<path d="M6855 681 c-10 -17 11 -21 31 -6 18 14 18 14 -3 15 -12 0 -24 -4 -28
-9z"/>
<path d="M5950 628 c-6 -18 -16 -42 -22 -53 l-10 -20 20 20 c18 18 41 85 29
85 -3 0 -10 -15 -17 -32z"/>
<path d="M1230 325 c-18 -66 -1 -165 29 -165 8 0 31 93 24 100 -3 3 -12 -4
-20 -15 -14 -18 -15 -15 -10 48 6 79 -5 95 -23 32z"/>
<path d="M1290 285 c-8 -9 -8 -15 -2 -15 12 0 26 19 19 26 -2 2 -10 -2 -17
-11z"/>
<path d="M5794 269 c-3 -6 -2 -15 4 -21 6 -6 11 -2 15 11 5 22 -7 29 -19 10z"/>
<path d="M3223 155 c0 -22 2 -30 4 -17 2 12 2 30 0 40 -3 9 -5 -1 -4 -23z"/>
<path d="M5860 105 c0 -8 5 -15 10 -15 6 0 10 7 10 15 0 8 -4 15 -10 15 -5 0
-10 -7 -10 -15z"/>
<path d="M5827 61 c-3 -14 -1 -18 9 -14 16 6 18 19 5 27 -5 3 -11 -3 -14 -13z"/>
<path d="M4581 14 c0 -11 3 -14 6 -6 3 7 2 16 -1 19 -3 4 -6 -2 -5 -13z"/>
</g>
</svg>
